# xmcd CD database file
#
# Track frame offsets:
#	150
#	11185
#	19256
#	31324
#	40619
#	51365
#	60245
#	74233
#	88417
#	97546
#	107528
#	119833
#	128830
#	134313
#	146095
#	158641
#
# Disc length: 2309 seconds
#
# Revision: 1
# Processed by: cddbd v1.5.2PL0 Copyright (c) Steve Scherf et al.
# Submitted via: CDex 1.51
#
DISCID=df090310
DTITLE=Willie Nelson - The Album - CD 2
DYEAR=2003
DGENRE=Country
TTITLE0=Go Away
TTITLE1=Things To Remember
TTITLE2=Following Me Around
TTITLE3=One Step Beyond
TTITLE4=Blame It On Times
TTITLE5=Why Are You Picking On Me
TTITLE6=So Much To Do
TTITLE7=Rainy Day Blues
TTITLE8=Right From Wrong
TTITLE9=A New Way To Cry
TTITLE10=Shelter Of My Arms
TTITLE11=Waiting Time
TTITLE12=The Ghost
TTITLE13=Night Life
TTITLE14=The Storm Has Just Begun
TTITLE15=What Can You Do To Me Now
EXTD=YEAR: 2003
EXTT0=
EXTT1=
EXTT2=
EXTT3=
EXTT4=
EXTT5=
EXTT6=
EXTT7=
EXTT8=
EXTT9=
EXTT10=
EXTT11=
EXTT12=
EXTT13=
EXTT14=
EXTT15=
PLAYORDER=
